#!OML:ASF X:\für Bonn\!DataBase\2005_08_10_Bjorn_Final\c3d\bjorn.ASF
:FULLY-SPECIFIED
:DEGREES
69
root 4.13009 21.7816 -17.3372 7.63922 -5.68303 360.804
lowerback 0.674969 0.756192 3.05923
upperback 8.72868 0.855503 0.165384
thorax 8.84711 0.638252 -1.47492
lowerneck 0.703322 -1.07658 0.395787
upperneck -16.5617 -1.75376 -1.91602
head -5.10833 -0.779423 -0.579427
rclavicle -6.55989e-015 7.15625e-015
rhumerus -49.0068 -8.57448 -88.275
rradius 93.3308
rwrist -0.500235
rhand -26.4481 31.6404
rfingers 7.12502
rthumb 0.112932 1.66071
lclavicle -6.55989e-015 7.15625e-015
lhumerus -50.4861 -20.4567 93.6148
lradius 88.5014
lwrist -7.68323
lhand -45.9922 -29.651
lfingers 7.12502
lthumb -18.7382 -0.533477
rfemur -28.7267 -3.92654 14.5396
rtibia 37.1781
rfoot 7.55395 8.88125
rtoes -23.3748
lfemur -29.7532 0.875542 -14.6075
ltibia 35.2764
lfoot 9.35086 1.5309
ltoes -30.2611
70
root 4.15388 21.5261 -17.182 7.40224 -5.66224 360.859
lowerback 0.846806 0.727841 3.11155
upperback 8.9242 0.819218 0.136902
thorax 8.96296 0.629239 -1.53705
lowerneck 0.931873 -1.07345 0.49151
upperneck -17.9712 -1.78276 -1.96466
head -5.58728 -0.78676 -0.606603
rclavicle 3.12092e-014 3.57812e-015
rhumerus -49.1366 -9.71286 -88.0181
rradius 91.4819
rwrist -0.0200006
rhand -27.271 32.5016
rfingers 7.12502
rthumb -0.681827 2.52297
lclavicle 3.12092e-014 3.57812e-015
lhumerus -50.0556 -18.8949 93.7644
lradius 86.5474
lwrist -7.75271
lhand -45.7608 -30.213
lfingers 7.12502
lthumb -18.5156 -1.07415
rfemur -28.4008 -3.51562 14.2377
rtibia 37.6221
rfoot 8.03797 8.68777
rtoes -24.5647
lfemur -29.9824 -0.278987 -14.1848
ltibia 36.1478
lfoot 9.39891 1.79678
ltoes -30.4852
71
root 4.1784 21.259 -17.025 7.05039 -5.60555 360.933
lowerback 1.09041 0.702372 3.14883
upperback 9.17147 0.788889 0.111576
thorax 9.09437 0.622832 -1.58738
lowerneck 0.820887 -1.06016 0.40044
upperneck -18.9714 -1.75905 -1.76423
head -5.87992 -0.777703 -0.529595
rclavicle -5.56597e-015 -5.1684e-015
rhumerus -49.1626 -11.102 -87.656
rradius 89.4959
rwrist 0.550008
rhand -28.1569 33.3522
rfingers 7.12502
rthumb -1.53747 3.37799
lclavicle -5.56597e-015 -5.1684e-015
lhumerus -49.3932 -17.1933 93.8362
lradius 84.1483
lwrist -7.57686
lhand -45.554 -30.8371
lfingers 7.12502
lthumb -18.3167 -1.67948
rfemur -27.8241 -3.1152 13.8932
rtibia 38.1214
rfoot 7.88662 8.71226
rtoes -26.3725
lfemur -30.1234 -1.53161 -13.79
ltibia 37.1997
lfoot 9.41615 1.9116
ltoes -30.8489
72
root 4.2022 20.9841 -16.8671 6.63202 -5.53904 361.033
lowerback 1.37774 0.666691 3.1742
upperback 9.43282 0.748545 0.0620338
thorax 9.21592 0.61197 -1.65774
lowerneck 0.636128 -1.05225 0.352657
upperneck -19.8817 -1.73697 -1.57458
head -6.13432 -0.773364 -0.46315
rclavicle 2.14687e-014 5.56597e-015
rhumerus -49.0084 -12.5687 -87.2843
rradius 87.3592
rwrist 1.07106
rhand -29.1868 34.023
rfingers 7.12502
rthumb -2.53212 4.05825
lclavicle 2.14687e-014 5.56597e-015
lhumerus -48.7108 -15.3479 93.826
lradius 81.5577
lwrist -6.99799
lhand -45.6642 -30.9257
lfingers 7.12502
lthumb -18.4227 -1.77809
rfemur -27.1277 -2.76394 13.5456
rtibia 38.7361
rfoot 7.08528 9.01356
rtoes -28.3077
lfemur -30.2284 -2.79646 -13.4485
ltibia 38.4424
lfoot 9.18659 1.81637
ltoes -31.1822
73
root 4.22708 20.699 -16.7086 6.20325 -5.44048 361.248
lowerback 1.61291 0.609739 3.04193
upperback 9.67821 0.683575 0.0218686
thorax 9.34539 0.575869 -1.63134
lowerneck 0.435972 -1.03189 0.2267
upperneck -20.7225 -1.70074 -1.39318
head -6.36535 -0.75678 -0.386596
rclavicle -7.95139e-016 9.54166e-015
rhumerus -48.7772 -14.0651 -86.8277
rradius 85.1573
rwrist 1.53603
rhand -30.2208 34.4432
rfingers 7.12502
rthumb -3.53069 4.49266
lclavicle -7.95139e-016 9.54166e-015
lhumerus -48.0909 -13.2227 93.8618
lradius 78.905
lwrist -6.09333
lhand -46.1455 -30.2175
lfingers 7.12502
lthumb -18.8857 -1.11429
rfemur -26.4409 -2.51606 13.0944
rtibia 39.5325
rfoot 5.77335 9.52497
rtoes -29.2044
lfemur -30.3499 -4.10432 -13.2442
ltibia 39.8554
lfoot 8.60399 1.39958
ltoes -31.411
74
root 4.25018 20.4035 -16.5492 5.77677 -5.3146 361.491
lowerback 1.86699 0.56814 2.90739
upperback 9.85815 0.645519 -0.0775967
thorax 9.39331 0.553945 -1.66545
lowerneck 0.218055 -1.03774 0.326531
upperneck -21.4607 -1.70032 -1.31457
head -6.56512 -0.76801 -0.378829
rclavicle 7.7526e-015 1.31198e-014
rhumerus -48.706 -15.6499 -86.3969
rradius 82.9885
rwrist 1.95984
rhand -31.3428 34.5297
rfingers 7.12502
rthumb -4.61411 4.59993
lclavicle 7.7526e-015 1.31198e-014
lhumerus -47.415 -10.8511 93.81
lradius 76.0499
lwrist -4.81025
lhand -46.5636 -29.1491
lfingers 7.12502
lthumb -19.2877 -0.08559
rfemur -25.8015 -2.32781 12.6549
rtibia 40.5396
rfoot 3.8223 10.1883
rtoes -29.9366
lfemur -30.4744 -5.37418 -13.0911
ltibia 41.4332
lfoot 7.62133 0.518142
ltoes -31.755
75
root 4.27313 20.1049 -16.388 5.34161 -5.19613 361.667
lowerback 2.16017 0.553641 2.88557
upperback 10.0104 0.643801 -0.210395
thorax 9.39274 0.560006 -1.7961
lowerneck -0.0537229 -1.0578 0.659508
upperneck -22.2081 -1.73213 -1.38515
head -6.76369 -0.803063 -0.457088
rclavicle -7.7526e-015 3.57812e-015
rhumerus -48.6384 -17.2387 -85.9882
rradius 80.7562
rwrist 2.13551
rhand -32.2653 34.5146
rfingers 7.12502
rthumb -5.50486 4.60615
lclavicle -7.7526e-015 3.57812e-015
lhumerus -46.5185 -8.24882 93.6599
lradius 72.9199
lwrist -2.92301
lhand -46.512 -28.5157
lfingers 7.12502
lthumb -19.2381 0.552761
rfemur -25.211 -2.15484 12.3126
rtibia 41.7612
rfoot 1.23776 10.92
rtoes -30.8717
lfemur -30.5676 -6.37866 -13.004
ltibia 43.1357
lfoot 6.18406 -0.962681
ltoes -33.3765
76
root 4.29554 19.8103 -16.2265 4.84522 -5.02583 361.696
lowerback 2.53684 0.527064 3.01683
upperback 10.1667 0.620181 -0.295496
thorax 9.34953 0.565159 -1.96352
lowerneck -0.364318 -1.08841 1.13004
upperneck -22.9718 -1.80655 -1.62769
head -6.96608 -0.858395 -0.612861
rclavicle 1.17283e-014 -9.93923e-015
rhumerus -48.4654 -18.6766 -85.5561
rradius 78.2211
rwrist 2.04388
rhand -32.8939 34.0729
rfingers 7.12502
rthumb -6.11179 4.18111
lclavicle 1.17283e-014 -9.93923e-015
lhumerus -45.3577 -5.80111 93.5058
lradius 69.841
lwrist -0.194049
lhand -45.7203 -28.3553
lfingers 7.12502
lthumb -18.4767 0.787194
rfemur -24.5941 -1.94081 12.1528
rtibia 43.1521
rfoot -1.9951 11.4766
rtoes -31.1615
lfemur -30.5672 -7.23046 -12.8768
ltibia 44.9291
lfoot 4.14848 -2.59991
ltoes -35.4517
77
root 4.31698 19.5211 -16.0641 4.42607 -4.86537 361.788
lowerback 2.75848 0.496827 3.05038
upperback 10.3233 0.5887 -0.362878
thorax 9.39542 0.558796 -2.05666
lowerneck -0.802965 -1.11877 1.51133
upperneck -23.7073 -1.88985 -1.85853
head -7.13868 -0.914109 -0.751274
rclavicle 0 -3.97569e-016
rhumerus -48.0852 -19.9636 -85.0999
rradius 75.2967
rwrist 1.75337
rhand -33.5343 33.886
rfingers 7.12502
rthumb -6.73005 4.01293
lclavicle 0 -3.97569e-016
lhumerus -43.7811 -3.49956 93.396
lradius 66.4793
lwrist 2.98279
lhand -44.3684 -27.7049
lfingers 7.12502
lthumb -17.1759 1.55598
rfemur -24.1401 -1.71434 11.9489
rtibia 44.6849
rfoot -5.72499 11.828
rtoes -30.8596
lfemur -30.601 -8.02779 -12.8713
ltibia 46.7842
lfoot 1.39725 -3.8914
ltoes -37.3876
78
root 4.33834 19.2346 -15.9009 4.09335 -4.70717 362.095
lowerback 2.81809 0.473675 2.83501
upperback 10.4382 0.570511 -0.445418
thorax 9.48495 0.538985 -2.02515
lowerneck -1.01657 -1.12828 1.50554
upperneck -24.6976 -1.89693 -1.72773
head -7.42972 -0.927437 -0.709398
rclavicle -1.05356e-014 1.55052e-014
rhumerus -47.6019 -21.1559 -84.5609
rradius 72.0564
rwrist 1.37927
rhand -34.0307 33.6375
rfingers 7.12502
rthumb -7.20924 3.78032
lclavicle -1.05356e-014 1.55052e-014
lhumerus -42.1348 -1.00249 93.2079
lradius 62.8204
lwrist 5.42462
lhand -43.567 -27.6541
lfingers 7.12502
lthumb -16.4044 1.6722
rfemur -23.7947 -1.474 11.5125
rtibia 46.3358
rfoot -9.80235 11.9553
rtoes -30.5765
lfemur -30.7098 -8.81873 -13.1489
ltibia 48.6907
lfoot -1.89418 -4.63312
ltoes -39.1805
79
root 4.3584 18.9491 -15.7379 3.77444 -4.56727 362.337
lowerback 2.87638 0.466691 2.65964
upperback 10.5301 0.570199 -0.487424
thorax 9.55096 0.52837 -1.97201
lowerneck -1.343 -1.16911 1.43522
upperneck -25.4955 -1.94808 -1.59523
head -7.64013 -0.957746 -0.653342
rclavicle -7.35503e-015 -1.23246e-014
rhumerus -46.9665 -22.3557 -84.0225
rradius 68.76
rwrist 0.786943
rhand -34.0736 32.8183
rfingers 7.12502
rthumb -7.25058 2.96252
lclavicle -7.35503e-015 -1.23246e-014
lhumerus -40.6097 1.59676 92.9536
lradius 59.1919
lwrist 7.01379
lhand -42.6365 -26.2201
lfingers 7.12502
lthumb -15.5083 3.17796
rfemur -23.4337 -1.11472 11.1617
rtibia 48.0922
rfoot -14.0748 11.7857
rtoes -29.8025
lfemur -30.7128 -9.60832 -13.4249
ltibia 50.6423
lfoot -5.53872 -4.68658
ltoes -40.3829
80
root 4.37902 18.667 -15.5751 3.45519 -4.41587 362.572
lowerback 2.94334 0.456703 2.50048
upperback 10.6062 0.565873 -0.529649
thorax 9.59425 0.516572 -1.92851
lowerneck -1.6592 -1.20206 1.37373
upperneck -26.1274 -1.98693 -1.48148
head -7.79833 -0.981333 -0.605178
rclavicle 4.96962e-015 -3.57812e-015
rhumerus -46.2319 -23.3487 -83.6418
rradius 65.6851
rwrist -0.694018
rhand -34.1951 32.9629
rfingers 7.12502
rthumb -7.36788 3.11117
lclavicle 4.96962e-015 -3.57812e-015
lhumerus -39.0779 4.10377 92.6198
lradius 55.473
lwrist 7.81108
lhand -41.7009 -25.4892
lfingers 7.12502
lthumb -14.607 3.97646
rfemur -23.1011 -0.717333 10.8294
rtibia 49.9199
rfoot -18.1216 11.5971
rtoes -28.4395
lfemur -30.5583 -10.4213 -13.7833
ltibia 52.5748
lfoot -9.1477 -4.10279
ltoes -40.371
81
root 4.39728 18.4087 -15.4129 3.2167 -4.2879 362.746
lowerback 2.92741 0.465075 2.37391
upperback 10.6559 0.581553 -0.545236
thorax 9.65833 0.515834 -1.87329
lowerneck -1.9944 -1.24227 1.31854
upperneck -26.6126 -2.04241 -1.41262
head -7.90534 -1.00978 -0.571904
rclavicle 4.57205e-015 -9.93923e-015
rhumerus -45.5089 -24.1436 -83.4397
rradius 63.1528
rwrist -2.97397
rhand -33.9034 32.6185
rfingers 7.12502
rthumb -7.08629 2.75715
lclavicle 4.57205e-015 -9.93923e-015
lhumerus -37.6589 6.42808 92.2588
lradius 51.7995
lwrist 8.0587
lhand -40.6917 -25.0269
lfingers 7.12502
lthumb -13.6345 4.50655
rfemur -22.9216 -0.252775 10.6014
rtibia 51.729
rfoot -21.8496 11.4338
rtoes -27.1124
lfemur -30.3842 -10.9681 -14.1511
ltibia 54.4181
lfoot -12.4591 -3.39022
ltoes -38.8794
82
root 4.41459 18.1858 -15.2509 3.06063 -4.14997 362.962
lowerback 2.82255 0.464307 2.18854
upperback 10.6631 0.585896 -0.568099
thorax 9.72504 0.504304 -1.79312
lowerneck -2.2198 -1.28038 1.24377
upperneck -27.1117 -2.09182 -1.33098
head -8.0369 -1.03371 -0.530328
rclavicle 8.54774e-015 2.18663e-014
rhumerus -44.8081 -24.6341 -83.4672
rradius 61.3745
rwrist -6.15383
rhand -32.7332 30.6563
rfingers 7.12502
rthumb -5.95666 0.760053
lclavicle 8.54774e-015 2.18663e-014
lhumerus -36.4923 8.34935 91.9317
lradius 48.7243
lwrist 7.70546
lhand -39.8169 -24.5348
lfingers 7.12502
lthumb -12.7913 5.05333
rfemur -22.8476 0.135372 10.3741
rtibia 53.4338
rfoot -25.2298 11.153
rtoes -26.8097
lfemur -30.229 -11.3337 -14.6138
ltibia 56.0543
lfoot -15.3959 -2.9094
ltoes -35.7181
